<svg width="117" height="85" viewBox="0 0 117 85" fill="none" xmlns="http://www.w3.org/2000/svg">
	<g clip-path="url(#clip0_1362_165)">
		<path d="M91.6863 19.7324L94.9092 22.9554M85.5586 20.2825L82.3356 23.5054M95.6426 9.83178L92.4196 13.0547M82.9093 10.764L86.1322 13.987M88.8795 24.8518V20.2938M79.5997 16.3498L84.1576 16.3498M94.1199 16.0905H98.6778M89.0148 12.3038L89.0148 7.74588M39.9933 21.2391L54.0272 52.4759M30.9391 28.4824C23.6958 17.5369 29.1283 4.40239 29.1283 4.40239C29.1283 4.40239 40.8987 0.0241697 52.6691 18.4126M30.9391 28.4824C38.1824 17.1647 52.6691 18.0701 52.6691 18.0701C57.6489 10.3741 68.5139 10.8268 68.5139 10.8268C16.9052 -21.3155 11.4727 36.1784 11.4727 36.1784C16.9052 28.0297 30.9391 28.4824 30.9391 28.4824ZM93.0114 16.5954C93.0114 17.502 92.6032 18.3715 91.8767 19.0126C91.1501 19.6537 90.1647 20.0138 89.1371 20.0138C88.6284 20.0138 88.1246 19.9254 87.6545 19.7536C87.1845 19.5818 86.7574 19.33 86.3977 19.0125C86.0379 18.6951 85.7526 18.3182 85.5579 17.9035C85.3632 17.4887 85.263 17.0442 85.263 16.5952C85.263 15.6886 85.6712 14.8191 86.3978 14.178C87.1243 13.5369 88.1098 13.1768 89.1373 13.1768C89.6461 13.1768 90.1498 13.2653 90.6199 13.4371C91.0899 13.6089 91.517 13.8607 91.8768 14.1781C92.2365 14.4956 92.5219 14.8724 92.7165 15.2872C92.9112 15.702 93.0114 16.1465 93.0114 16.5954ZM1.06041 83.7128C1.06041 83.7128 8.30375 45.6853 54.4799 42.5164C100.656 39.3474 115.595 80.9965 115.143 82.8073C114.69 84.6182 1.06041 83.7128 1.06041 83.7128Z" stroke="#3E5389" stroke-width="1.51121" stroke-linecap="round" stroke-linejoin="round"/>
	</g>
	<defs>
		<clipPath id="clip0_1362_165">
			<rect width="116.223" height="85" fill="white"/>
		</clipPath>
	</defs>
</svg>
